<svg width="153" height="32" viewBox="0 0 153 32" fill="none" xmlns="http://www.w3.org/2000/svg">
<path d="M113.043 0C111.243 0.00633664 109.519 0.723792 108.246 1.99599C106.973 3.26819 106.255 4.99198 106.248 6.79166V31.5714H111.771V26.0514H114.315V31.5633H119.839V6.7716C119.826 4.97541 119.105 3.25674 117.833 1.98886C116.561 0.72099 114.839 0.00629498 113.043 0ZM111.771 20.5515V6.79166C111.771 6.45439 111.905 6.13093 112.144 5.89244C112.382 5.65395 112.706 5.51998 113.043 5.51998C113.38 5.51998 113.704 5.65395 113.942 5.89244C114.181 6.13093 114.315 6.45439 114.315 6.79166V20.5515H111.771Z" fill="black"/>
<path d="M130.004 12.9816C130.014 13.1548 129.988 13.3283 129.929 13.4913C129.869 13.6543 129.777 13.8034 129.658 13.9295C129.538 14.0556 129.395 14.156 129.235 14.2247C129.076 14.2933 128.904 14.3288 128.731 14.3288C128.557 14.3288 128.385 14.2933 128.226 14.2247C128.067 14.156 127.923 14.0556 127.804 13.9295C127.684 13.8034 127.592 13.6543 127.533 13.4913C127.473 13.3283 127.447 13.1548 127.457 12.9816V6.7756H121.937V12.9816C121.941 14.2947 122.324 15.5789 123.039 16.6798C123.755 17.7807 124.774 18.6514 125.973 19.1875V31.5714H131.493V19.1875C132.687 18.6479 133.7 17.7756 134.412 16.675C135.123 15.5744 135.503 14.2921 135.504 12.9816V6.76758H130.004V12.9816Z" fill="black"/>
<path d="M16.1347 25.3694C16.1164 25.6948 15.9743 26.0009 15.7374 26.2249C15.5006 26.4488 15.187 26.5736 14.861 26.5736C14.5351 26.5736 14.2215 26.4488 13.9846 26.2249C13.7478 26.0009 13.6056 25.6948 13.5873 25.3694V12.9695C13.5442 11.1963 12.8096 9.5102 11.5402 8.27131C10.2708 7.03242 8.56739 6.33893 6.79366 6.33893C5.01993 6.33893 3.3165 7.03242 2.04714 8.27131C0.777773 9.5102 0.0430923 11.1963 0 12.9695V31.5673H5.51998V12.9695C5.53825 12.6441 5.6804 12.338 5.91726 12.114C6.15412 11.8901 6.4677 11.7653 6.79366 11.7653C7.11962 11.7653 7.43322 11.8901 7.67007 12.114C7.90693 12.338 8.04908 12.6441 8.06735 12.9695V25.3694C8.11045 27.1426 8.84511 28.8287 10.1145 30.0676C11.3838 31.3065 13.0873 32 14.861 32C16.6347 32 18.3382 31.3065 19.6075 30.0676C20.8769 28.8287 21.6116 27.1426 21.6547 25.3694V12.9695H16.1347V25.3694Z" fill="black"/>
<path d="M103.604 25.3694V6.77162H98.0839V25.3694C98.0657 25.6949 97.9235 26.001 97.6867 26.2249C97.4498 26.4489 97.1362 26.5736 96.8103 26.5736C96.4843 26.5736 96.1707 26.4489 95.9338 26.2249C95.697 26.001 95.5548 25.6949 95.5366 25.3694V19.1635C95.5586 18.2574 95.3992 17.3561 95.0676 16.5126C94.7361 15.6691 94.2392 14.9005 93.6062 14.2519C92.9732 13.6033 92.2168 13.0878 91.3816 12.7359C90.5464 12.384 89.6492 12.2027 88.7429 12.2027C87.8366 12.2027 86.9394 12.384 86.1042 12.7359C85.269 13.0878 84.5126 13.6033 83.8796 14.2519C83.2466 14.9005 82.7497 15.6691 82.4182 16.5126C82.0867 17.3561 81.9272 18.2574 81.9493 19.1635V25.3694C81.931 25.6949 81.7888 26.001 81.552 26.2249C81.3151 26.4489 81.0015 26.5736 80.6756 26.5736C80.3496 26.5736 80.036 26.4489 79.7992 26.2249C79.5623 26.001 79.4201 25.6949 79.4019 25.3694V12.9696H73.8819V25.3694C73.925 27.1427 74.6597 28.8287 75.929 30.0676C77.1984 31.3065 78.9018 32 80.6756 32C82.4493 32 84.1527 31.3065 85.4221 30.0676C86.6915 28.8287 87.4261 27.1427 87.4692 25.3694V19.1635C87.4875 18.838 87.6296 18.5319 87.8665 18.308C88.1034 18.0841 88.417 17.9593 88.7429 17.9593C89.0689 17.9593 89.3824 18.0841 89.6193 18.308C89.8562 18.5319 89.9983 18.838 90.0166 19.1635V25.3694C90.0597 27.1427 90.7944 28.8287 92.0637 30.0676C93.3331 31.3065 95.0365 32 96.8103 32C98.584 32 100.287 31.3065 101.557 30.0676C102.826 28.8287 103.561 27.1427 103.604 25.3694Z" fill="black"/>
<path d="M52.8249 19.1634V25.3694C52.868 27.1426 53.6027 28.8287 54.8721 30.0676C56.1414 31.3065 57.8449 32 59.6186 32C61.3923 32 63.0958 31.3065 64.3651 30.0676C65.6345 28.8287 66.3692 27.1426 66.4123 25.3694V19.1715H60.8883V25.3694C60.8883 25.7067 60.7543 26.0301 60.5158 26.2686C60.2773 26.5071 59.9539 26.6411 59.6166 26.6411C59.2793 26.6411 58.9559 26.5071 58.7174 26.2686C58.4789 26.0301 58.3449 25.7067 58.3449 25.3694V19.1634C58.3669 18.2574 58.2075 17.3561 57.876 16.5126C57.5445 15.6691 57.0476 14.9004 56.4145 14.2518C55.7815 13.6032 55.0251 13.0878 54.1899 12.7359C53.3547 12.384 52.4576 12.2027 51.5512 12.2027C50.6449 12.2027 49.7478 12.384 48.9126 12.7359C48.0774 13.0878 47.321 13.6032 46.688 14.2518C46.0549 14.9004 45.558 15.6691 45.2265 16.5126C44.895 17.3561 44.7356 18.2574 44.7576 19.1634V25.3694C44.7393 25.6948 44.5972 26.0009 44.3603 26.2249C44.1235 26.4488 43.8099 26.5736 43.4839 26.5736C43.158 26.5736 42.8444 26.4488 42.6075 26.2249C42.3706 26.0009 42.2285 25.6948 42.2102 25.3694V12.9695H36.6902V25.3694C36.7333 27.1426 37.468 28.8287 38.7374 30.0676C40.0067 31.3065 41.7102 32 43.4839 32C45.2576 32 46.9611 31.3065 48.2304 30.0676C49.4998 28.8287 50.2345 27.1426 50.2776 25.3694V19.1634C50.2958 18.838 50.438 18.5319 50.6748 18.308C50.9117 18.084 51.2253 17.9592 51.5512 17.9592C51.8772 17.9592 52.1908 18.084 52.4277 18.308C52.6645 18.5319 52.8067 18.838 52.8249 19.1634Z" fill="black"/>
<path d="M34.175 26.0434H29.6619V24.4107H32.2855V20.1182H29.6619V18.4815H34.2071V12.9615H24.1419V31.5634H34.175V26.0434Z" fill="black"/>
<path d="M144.647 16.3834C144.1 16.3834 143.575 16.1662 143.189 15.7795C142.802 15.3928 142.585 14.8683 142.585 14.3215C142.585 13.7746 142.802 13.2501 143.189 12.8634C143.575 12.4767 144.1 12.2595 144.647 12.2595H147.122V6.73952H144.647C142.636 6.73952 140.707 7.53832 139.285 8.96021C137.864 10.3821 137.065 12.3106 137.065 14.3215C137.065 16.3323 137.864 18.2608 139.285 19.6827C140.707 21.1046 142.636 21.9034 144.647 21.9034C145.194 21.9034 145.718 22.1206 146.105 22.5073C146.491 22.894 146.709 23.4185 146.709 23.9654C146.709 24.9883 146.075 26.0233 144.863 26.0233H137.089V31.5473H144.843C148.975 31.5473 152.209 28.2137 152.209 23.9654C152.206 21.9586 151.41 20.0344 149.993 18.6135C148.575 17.1927 146.653 16.3908 144.647 16.3834Z" fill="black"/>
</svg>
