<svg width="36" height="36" viewBox="0 0 36 36" fill="none" xmlns="http://www.w3.org/2000/svg">
<g clip-path="url(#clip0_83_9)">
<path d="M36 18C36 8.05887 27.9411 0 18 0C8.05887 0 0 8.05887 0 18C0 27.9411 8.05887 36 18 36C27.9411 36 36 27.9411 36 18Z" fill="#6F777F" fill-opacity="0.4"/>
<path d="M25.7926 18.2592L18.5934 10.2534C18.2903 9.91554 17.7079 9.91554 17.4048 10.2534L10.2056 18.2592C10.1019 18.3741 10.0339 18.5168 10.0098 18.6697C9.98563 18.8226 10.0064 18.9793 10.0696 19.1206C10.1976 19.4096 10.4839 19.5954 10.7999 19.5954H12.3997V25.1994C12.3997 25.4117 12.484 25.6154 12.634 25.7655C12.784 25.9157 12.9875 26 13.1996 26H15.5994C15.8115 26 16.015 25.9157 16.165 25.7655C16.315 25.6154 16.3993 25.4117 16.3993 25.1994V21.9971H19.5989V25.1994C19.5989 25.4117 19.6832 25.6154 19.8332 25.7655C19.9832 25.9157 20.1867 26 20.3988 26H22.7986C23.0107 26 23.2142 25.9157 23.3642 25.7655C23.5142 25.6154 23.5985 25.4117 23.5985 25.1994V19.5954H25.1983C25.3532 19.596 25.505 19.5516 25.6351 19.4674C25.7652 19.3832 25.868 19.263 25.931 19.1213C25.994 18.9797 26.0145 18.8227 25.9899 18.6697C25.9653 18.5166 25.8968 18.374 25.7926 18.2592Z" fill="white"/>
</g>
<defs>
<clipPath id="clip0_83_9">
<rect width="36" height="36" fill="white"/>
</clipPath>
</defs>
</svg>
