<svg width="36" height="36" viewBox="0 0 36 36" fill="none" xmlns="http://www.w3.org/2000/svg">
<g clip-path="url(#clip0_83_12)">
<path d="M36 18C36 8.05887 27.9411 0 18 0C8.05887 0 0 8.05887 0 18C0 27.9411 8.05887 36 18 36C27.9411 36 36 27.9411 36 18Z" fill="#6F777F" fill-opacity="0.4"/>
<path d="M18.0008 9C15.5566 9 15.2498 9.01069 14.2898 9.05438C13.3317 9.09825 12.6777 9.24994 12.1054 9.4725C11.5135 9.70238 11.0113 10.0099 10.5111 10.5103C10.0104 11.0106 9.70294 11.5127 9.47232 12.1044C9.24919 12.6769 9.09731 13.3311 9.05419 14.2888C9.01125 15.2488 9 15.5557 9 18C9 20.4443 9.01088 20.7501 9.05438 21.7101C9.09844 22.6682 9.25013 23.3222 9.47251 23.8944C9.70257 24.4864 10.0101 24.9885 10.5105 25.4888C11.0106 25.9894 11.5127 26.2976 12.1043 26.5275C12.6769 26.7501 13.3311 26.9018 14.2891 26.9456C15.2491 26.9893 15.5556 27 17.9997 27C20.4442 27 20.75 26.9893 21.71 26.9456C22.6681 26.9018 23.3229 26.7501 23.8955 26.5275C24.4873 26.2976 24.9887 25.9894 25.4887 25.4888C25.9894 24.9885 26.2969 24.4864 26.5275 23.8946C26.7487 23.3222 26.9006 22.668 26.9456 21.7103C26.9888 20.7503 27 20.4443 27 18C27 15.5557 26.9888 15.249 26.9456 14.289C26.9006 13.3309 26.7487 12.6769 26.5275 12.1046C26.2969 11.5127 25.9894 11.0106 25.4887 10.5103C24.9881 10.0097 24.4875 9.70219 23.895 9.4725C23.3212 9.24994 22.6668 9.09825 21.7087 9.05438C20.7487 9.01069 20.4431 9 17.998 9H18.0008ZM17.1935 10.6219C17.4331 10.6215 17.7005 10.6219 18.0008 10.6219C20.4039 10.6219 20.6887 10.6305 21.6376 10.6736C22.5151 10.7138 22.9914 10.8604 23.3086 10.9836C23.7287 11.1467 24.0281 11.3417 24.3429 11.6567C24.6579 11.9717 24.8529 12.2717 25.0164 12.6917C25.1396 13.0086 25.2864 13.4848 25.3264 14.3623C25.3695 15.3111 25.3789 15.5961 25.3789 17.9979C25.3789 20.3998 25.3695 20.6848 25.3264 21.6336C25.2862 22.5111 25.1396 22.9873 25.0164 23.3042C24.8533 23.7242 24.6579 24.0233 24.3429 24.3381C24.0279 24.6531 23.7288 24.8481 23.3086 25.0112C22.9918 25.1349 22.5151 25.2812 21.6376 25.3213C20.6889 25.3644 20.4039 25.3738 18.0008 25.3738C15.5976 25.3738 15.3128 25.3644 14.3641 25.3213C13.4865 25.2808 13.0103 25.1342 12.6929 25.011C12.2728 24.8479 11.9728 24.6529 11.6578 24.3379C11.3428 24.0229 11.1478 23.7236 10.9843 23.3034C10.8611 22.9866 10.7143 22.5103 10.6744 21.6328C10.6313 20.6841 10.6226 20.3991 10.6226 17.9957C10.6226 15.5923 10.6313 15.3088 10.6744 14.3601C10.7145 13.4826 10.8611 13.0063 10.9843 12.6891C11.1475 12.2691 11.3428 11.9691 11.6578 11.6541C11.9728 11.3391 12.2728 11.1441 12.6929 10.9806C13.0101 10.8568 13.4865 10.7106 14.3641 10.6703C15.1943 10.6328 15.5161 10.6215 17.1935 10.6196V10.6219ZM22.805 12.1162C22.2088 12.1162 21.725 12.5994 21.725 13.1959C21.725 13.7921 22.2088 14.2759 22.805 14.2759C23.4013 14.2759 23.885 13.7921 23.885 13.1959C23.885 12.5996 23.4013 12.1162 22.805 12.1162ZM18.0008 13.3781C15.4484 13.3781 13.3789 15.4476 13.3789 18C13.3789 20.5524 15.4484 22.6209 18.0008 22.6209C20.5533 22.6209 22.622 20.5524 22.622 18C22.622 15.4476 20.5532 13.3781 18.0008 13.3781ZM18.0008 15C19.6576 15 21.0009 16.3431 21.0009 18C21.0009 19.6567 19.6576 21 18.0008 21C16.3439 21 15.0008 19.6567 15.0008 18C15.0008 16.3431 16.3439 15 18.0008 15Z" fill="white"/>
</g>
<defs>
<clipPath id="clip0_83_12">
<rect width="36" height="36" fill="white"/>
</clipPath>
</defs>
</svg>
