<svg width="36" height="36" viewBox="0 0 36 36" fill="none" xmlns="http://www.w3.org/2000/svg">
<g clip-path="url(#clip0_83_18)">
<path d="M36 18C36 8.05887 27.9411 0 18 0C8.05887 0 0 8.05887 0 18C0 27.9411 8.05887 36 18 36C27.9411 36 36 27.9411 36 18Z" fill="#6F777F" fill-opacity="0.4"/>
<path d="M12.9412 13.1303C14.0133 13.1303 14.8824 12.2057 14.8824 11.0651C14.8824 9.9246 14.0133 9 12.9412 9C11.8691 9 11 9.9246 11 11.0651C11 12.2057 11.8691 13.1303 12.9412 13.1303Z" fill="white"/>
<path d="M16.6602 14.6565H19.8774V16.2244C19.8774 16.2244 20.7504 14.3669 23.1257 14.3669C25.2447 14.3669 27 15.4774 27 18.8622V26H23.6661V19.7272C23.6661 17.7304 22.6641 17.5108 21.9005 17.5108C20.3158 17.5108 20.0445 18.9649 20.0445 19.9876V26H16.6602V14.6565Z" fill="white"/>
<path d="M11.249 14.6565H14.6334V26H11.249V14.6565Z" fill="white"/>
</g>
<defs>
<clipPath id="clip0_83_18">
<rect width="36" height="36" fill="white"/>
</clipPath>
</defs>
</svg>
