<svg width="36" height="36" viewBox="0 0 36 36" fill="none" xmlns="http://www.w3.org/2000/svg">
<g clip-path="url(#clip0_83_15)">
<path d="M36 18C36 8.05887 27.9411 0 18 0C8.05887 0 0 8.05887 0 18C0 27.9411 8.05887 36 18 36C27.9411 36 36 27.9411 36 18Z" fill="#6F777F" fill-opacity="0.4"/>
<path fill-rule="evenodd" clip-rule="evenodd" d="M25.8253 11.4282C26.682 11.6588 27.3574 12.3341 27.5881 13.1906C28.0164 14.7553 27.9999 18.0165 27.9999 18.0165C27.9999 18.0165 27.9999 21.2612 27.5881 22.8259C27.3574 23.6824 26.682 24.3576 25.8253 24.5882C24.2602 25 18 25 18 25C18 25 11.7562 25 10.1746 24.5718C9.31795 24.3412 8.6425 23.6659 8.41186 22.8094C8 21.2612 8 18 8 18C8 18 8 14.7553 8.41186 13.1906C8.6425 12.3341 9.33443 11.6424 10.1746 11.4118C11.7397 11 18 11 18 11C18 11 24.2602 11 25.8253 11.4282ZM21.2125 17.8856L16.0065 20.8833V14.888L21.2125 17.8856Z" fill="white"/>
</g>
<defs>
<clipPath id="clip0_83_15">
<rect width="36" height="36" fill="white"/>
</clipPath>
</defs>
</svg>
